<svg width="379" height="295" viewBox="0 0 379 295" fill="none" xmlns="http://www.w3.org/2000/svg">
<path fill-rule="evenodd" clip-rule="evenodd" d="M189.393 31.5143C214.908 31.5143 240.15 32.6693 265.077 34.9163C268.341 35.2067 271.407 36.6111 273.758 38.8939C276.11 41.1767 277.605 44.1989 277.992 47.4533C280.596 69.2513 282.36 91.3013 283.242 113.603L247.773 78.1133C244.801 75.2457 240.822 73.66 236.692 73.6978C232.563 73.7356 228.613 75.3939 225.694 78.3155C222.775 81.237 221.121 85.1881 221.087 89.3178C221.053 93.4474 222.642 97.4251 225.513 100.394L288.492 163.394C291.445 166.344 295.448 168 299.622 168C303.796 168 307.799 166.344 310.752 163.394L373.773 100.394C375.32 98.9524 376.561 97.2135 377.422 95.2816C378.283 93.3496 378.746 91.264 378.783 89.1492C378.821 87.0345 378.432 84.9339 377.639 82.9727C376.847 81.0116 375.668 79.2301 374.173 77.7345C372.677 76.2389 370.896 75.0598 368.934 74.2677C366.973 73.4756 364.873 73.0865 362.758 73.1239C360.643 73.1612 358.558 73.624 356.626 74.4849C354.694 75.3457 352.955 76.5869 351.513 78.1343L314.805 114.821C313.932 91.0533 312.083 67.3313 309.261 43.7153C308.017 33.2907 303.228 23.6103 295.696 16.2965C288.164 8.98265 278.348 4.47974 267.891 3.54236C215.658 -1.18079 163.106 -1.18079 110.874 3.54236C100.421 4.48431 90.6091 8.98925 83.0816 16.3027C75.554 23.6161 70.7679 33.2939 69.5249 43.7153C68.1835 54.9622 67.0632 66.2344 66.1649 77.5253C65.9644 79.6051 66.1798 81.7041 66.7985 83.6999C67.4172 85.6957 68.4269 87.5485 69.7687 89.1502C71.1105 90.752 72.7576 92.0707 74.6141 93.0297C76.4705 93.9886 78.4993 94.5686 80.5821 94.7357C82.6649 94.9029 84.7601 94.654 86.7458 94.0034C88.7315 93.3529 90.5678 92.3138 92.1479 90.9465C93.728 89.5793 95.0203 87.9113 95.9494 86.0398C96.8786 84.1682 97.426 82.1305 97.5599 80.0453C98.4209 69.1253 99.5129 58.2473 100.794 47.4533C101.181 44.1989 102.676 41.1767 105.027 38.8939C107.379 36.6111 110.444 35.2067 113.709 34.9163C138.873 32.645 164.127 31.5098 189.393 31.5143ZM90.2939 130.634C87.3407 127.685 83.3376 126.028 79.1639 126.028C74.9901 126.028 70.987 127.685 68.0339 130.634L5.01288 193.634C3.46545 195.076 2.2243 196.815 1.36347 198.747C0.502642 200.679 0.0397636 202.764 0.00245114 204.879C-0.0348613 206.994 0.354157 209.095 1.1463 211.056C1.93844 213.017 3.11747 214.798 4.61307 216.294C6.10866 217.789 7.89017 218.969 9.85133 219.761C11.8125 220.553 13.9131 220.942 16.0278 220.905C18.1426 220.867 20.2282 220.404 22.1602 219.544C24.0922 218.683 25.831 217.442 27.2729 215.894L63.9809 179.207C64.8629 203.168 66.7109 226.877 69.5249 250.313C70.7688 260.738 75.5579 270.418 83.0897 277.732C90.6215 285.046 100.438 289.549 110.895 290.486C163.127 295.207 215.679 295.207 267.912 290.486C278.365 289.544 288.177 285.039 295.704 277.726C303.232 270.412 308.018 260.734 309.261 250.313C310.605 239.099 311.718 227.822 312.621 216.503C312.821 214.423 312.606 212.324 311.987 210.328C311.368 208.333 310.359 206.48 309.017 204.878C307.675 203.276 306.028 201.958 304.172 200.999C302.315 200.04 300.286 199.46 298.204 199.293C296.121 199.125 294.026 199.374 292.04 200.025C290.054 200.675 288.218 201.715 286.638 203.082C285.058 204.449 283.765 206.117 282.836 207.989C281.907 209.86 281.36 211.898 281.226 213.983C280.365 224.903 279.273 235.76 277.992 246.575C277.605 249.83 276.11 252.852 273.758 255.135C271.407 257.417 268.341 258.822 265.077 259.112C214.724 263.666 164.062 263.666 113.709 259.112C110.444 258.822 107.379 257.417 105.027 255.135C102.676 252.852 101.181 249.83 100.794 246.575C98.1686 224.603 96.4172 202.536 95.5439 180.425L131.013 215.915C133.985 218.783 137.964 220.368 142.094 220.331C146.223 220.293 150.173 218.634 153.092 215.713C156.01 212.791 157.665 208.84 157.699 204.711C157.733 200.581 156.143 196.603 153.273 193.634L90.2939 130.634Z" fill="white"/>
</svg>
