<svg width="420" height="420" viewBox="0 0 420 420" fill="none" xmlns="http://www.w3.org/2000/svg">
<path fill-rule="evenodd" clip-rule="evenodd" d="M210 94.4997C235.515 94.4997 260.757 95.6547 285.684 97.9017C288.949 98.192 292.014 99.5964 294.366 101.879C296.717 104.162 298.212 107.184 298.599 110.439C301.203 132.237 302.967 154.287 303.849 176.589L268.38 141.099C265.408 138.231 261.429 136.645 257.3 136.683C253.17 136.721 249.22 138.379 246.302 141.301C243.383 144.222 241.728 148.173 241.694 152.303C241.66 156.433 243.25 160.41 246.12 163.38L309.099 226.38C312.052 229.329 316.056 230.986 320.229 230.986C324.403 230.986 328.406 229.329 331.359 226.38L394.38 163.38C395.928 161.938 397.169 160.199 398.03 158.267C398.891 156.335 399.353 154.249 399.391 152.135C399.428 150.02 399.039 147.919 398.247 145.958C397.455 143.997 396.276 142.215 394.78 140.72C393.285 139.224 391.503 138.045 389.542 137.253C387.581 136.461 385.48 136.072 383.365 136.109C381.251 136.147 379.165 136.609 377.233 137.47C375.301 138.331 373.562 139.572 372.12 141.12L335.412 177.807C334.54 154.039 332.69 130.317 329.868 106.701C328.624 96.276 323.835 86.5957 316.303 79.2819C308.772 71.968 298.955 67.4651 288.498 66.5277C236.266 61.8046 183.714 61.8046 131.481 66.5277C121.028 67.4697 111.217 71.9746 103.689 79.288C96.1615 86.6015 91.3754 96.2793 90.1323 106.701C88.7909 117.948 87.6707 129.22 86.7723 140.511C86.5718 142.59 86.7872 144.689 87.406 146.685C88.0247 148.681 89.0343 150.534 90.3761 152.136C91.7179 153.737 93.365 155.056 95.2215 156.015C97.078 156.974 99.1067 157.554 101.189 157.721C103.272 157.888 105.368 157.639 107.353 156.989C109.339 156.338 111.175 155.299 112.755 153.932C114.335 152.565 115.628 150.897 116.557 149.025C117.486 147.154 118.033 145.116 118.167 143.031C119.028 132.111 120.12 121.233 121.401 110.439C121.788 107.184 123.283 104.162 125.635 101.879C127.987 99.5964 131.052 98.192 134.316 97.9017C159.48 95.6304 184.734 94.4952 210 94.4997ZM110.901 193.62C107.948 190.67 103.945 189.013 99.7713 189.013C95.5975 189.013 91.5944 190.67 88.6413 193.62L25.6203 256.619C24.0729 258.061 22.8317 259.8 21.9709 261.732C21.1101 263.664 20.6472 265.75 20.6099 267.865C20.5726 269.979 20.9616 272.08 21.7537 274.041C22.5459 276.002 23.7249 277.784 25.2205 279.279C26.7161 280.775 28.4976 281.954 30.4587 282.746C32.4199 283.538 34.5205 283.927 36.6353 283.89C38.75 283.853 40.8356 283.39 42.7676 282.529C44.6996 281.668 46.4384 280.427 47.8803 278.879L84.5883 242.192C85.4703 266.153 87.3183 289.862 90.1323 313.298C91.3762 323.723 96.1653 333.403 103.697 340.717C111.229 348.031 121.046 352.534 131.502 353.471C183.735 358.192 236.287 358.192 288.519 353.471C298.972 352.529 308.784 348.024 316.312 340.711C323.839 333.398 328.625 323.72 329.868 313.298C331.212 302.084 332.325 290.807 333.228 279.488C333.429 277.409 333.213 275.31 332.595 273.314C331.976 271.318 330.966 269.465 329.624 267.864C328.283 266.262 326.636 264.943 324.779 263.984C322.923 263.025 320.894 262.445 318.811 262.278C316.728 262.111 314.633 262.36 312.647 263.01C310.662 263.661 308.825 264.7 307.245 266.067C305.665 267.434 304.373 269.102 303.444 270.974C302.515 272.846 301.967 274.883 301.833 276.968C300.972 287.888 299.88 298.745 298.599 309.56C298.212 312.815 296.717 315.837 294.366 318.12C292.014 320.403 288.949 321.807 285.684 322.097C235.331 326.651 184.67 326.651 134.316 322.097C131.052 321.807 127.987 320.403 125.635 318.12C123.283 315.837 121.788 312.815 121.401 309.56C118.776 287.589 117.025 265.521 116.151 243.41L151.62 278.9C154.592 281.768 158.571 283.354 162.701 283.316C166.831 283.278 170.78 281.62 173.699 278.698C176.618 275.777 178.272 271.826 178.306 267.696C178.34 263.566 176.751 259.589 173.88 256.619L110.901 193.62Z" fill="black"/>
</svg>
